<svg class="toast-icon" viewBox="0 0 102 102" fill="none" xmlns="http://www.w3.org/2000/svg">
  <circle cx="51" cy="51" r="51" fill="#FEF2F2" />
  <path d="M51.5 83C34.13 83 20 68.87 20 51.5C20 34.13 34.13 20 51.5 20C68.87 20 83 34.13 83 51.5C83 68.78 68.87 83 51.5 83ZM51.5 25.31C37.1 25.31 25.4 37.01 25.4 51.41C25.4 65.81 37.1 77.51 51.5 77.51C65.9 77.51 77.6 65.81 77.6 51.41C77.6 37.01 65.9 25.31 51.5 25.31Z" fill="#F64F4E" />
  <path d="M51.4998 56.09C49.9698 56.09 48.7998 54.92 48.7998 53.39V39.62C48.7998 38.09 49.9698 36.92 51.4998 36.92C53.0298 36.92 54.1998 38.09 54.1998 39.62V53.39C54.1998 54.92 53.0298 56.09 51.4998 56.09Z" fill="#F64F4E" />
  <path d="M51.4998 65.99C50.7798 65.99 50.0598 65.72 49.6098 65.18C49.0698 64.64 48.7998 64.01 48.7998 63.29C48.7998 63.11 48.7998 62.93 48.8898 62.75C48.8898 62.57 48.9798 62.39 49.0698 62.21C49.1598 62.03 49.2498 61.94 49.3398 61.76C49.4298 61.58 49.5198 61.49 49.6998 61.31C50.6898 60.32 52.4898 60.32 53.4798 61.31C53.5698 61.4 53.7498 61.58 53.8398 61.76C53.9298 61.94 54.0198 62.03 54.1098 62.21C54.1998 62.39 54.1998 62.57 54.2898 62.75C54.2898 62.93 54.3798 63.11 54.3798 63.29C54.3798 64.01 54.1098 64.73 53.5698 65.18C52.9398 65.72 52.2198 65.99 51.4998 65.99Z" fill="#F64F4E" />
</svg>