 <svg
      xmlns="http://www.w3.org/2000/svg"
      width="70"
      height="70"
      fill="none"
      viewBox="0 0 70 70"
    >
      <path
        fill="#A5A5A5"
        d="M70 35c0 19.3-15.7 35-35 35S0 54.3 0 35 15.7 0 35 0s35 15.7 35 35zm-6 0C64 19 51 6 35 6S6 19 6 35s13 29 29 29c16 .1 29-13 29-29z"
      ></path>
      <path
        fill="#A5A5A5"
        d="M35 29.9c-1.7 0-3 1.3-3 3v15.3c0 1.7 1.3 3 3 3s3-1.3 3-3V32.9c0-1.7-1.3-3-3-3zM35 18.9c-.8 0-1.6.3-2.1.9-.6.5-.9 1.3-.9 2.1 0 .2 0 .4.1.6 0 .2.1.4.2.6.1.2.2.3.3.5.1.2.2.3.4.5 1.1 1.1 3.1 1.1 4.2 0 .1-.1.3-.3.4-.5.1-.2.2-.3.3-.5.1-.2.1-.4.2-.6 0-.2.1-.4.1-.6 0-.8-.3-1.6-.9-2.1-.7-.6-1.5-.9-2.3-.9z"
      ></path>
    </svg>