<svg width="16" height="48" viewBox="0 0 16 48" fill="none" xmlns="http://www.w3.org/2000/svg">
<path fill-rule="evenodd" clip-rule="evenodd" d="M5.65949 41.1625V2.00614C5.65949 0.89818 6.54722 0 7.65949 0C8.76406 0 9.65949 0.898242 9.65949 2.00614V41.1689L11.9184 38.91C12.6923 38.1362 13.9473 38.1366 14.7338 38.9231C15.5148 39.7041 15.5102 40.975 14.7468 41.7384L9.0639 47.4214C8.67911 47.8062 8.17536 47.9995 7.66939 48L7.65412 47.994C7.14619 47.9929 6.64114 47.801 6.26156 47.4214L0.578617 41.7384C-0.195229 40.9646 -0.194834 39.7096 0.591659 38.9231C1.37271 38.142 2.64365 38.1466 3.40705 38.91L5.65949 41.1625Z" fill="#3C3942"/>
</svg>
