<svg width="40" height="48" viewBox="0 0 40 48" fill="none" xmlns="http://www.w3.org/2000/svg">
<path fill-rule="evenodd" clip-rule="evenodd" d="M30.34 41.1625V2.00614C30.34 0.89818 31.2277 0 32.34 0C33.4446 0 34.34 0.898242 34.34 2.00614V41.1689L36.5989 38.91C37.3728 38.1362 38.6278 38.1366 39.4143 38.9231C40.1954 39.7041 40.1907 40.975 39.4273 41.7384L33.7444 47.4214C33.3596 47.8062 32.8559 47.9995 32.3499 48L32.3346 47.994C31.8267 47.9929 31.3216 47.801 30.9421 47.4214L25.2591 41.7384C24.4853 40.9646 24.4857 39.7096 25.2722 38.9231C26.0532 38.142 27.3242 38.1466 28.0876 38.91L30.34 41.1625ZM9.66 6.83754V45.9939C9.66 47.1018 8.77227 48 7.66 48C6.55543 48 5.66 47.1018 5.66 45.9939V6.83106L3.40108 9.08998C2.62723 9.86383 1.37219 9.86343 0.585692 9.07694C-0.195357 8.29589 -0.190746 7.02495 0.57265 6.26155L6.25559 0.578616C6.64037 0.193832 7.14413 0.000474038 7.6501 0L7.66537 0.00597076C8.17329 0.00705432 8.67835 0.199037 9.05793 0.578616L14.7409 6.26155C15.5147 7.0354 15.5143 8.29045 14.7278 9.07694C13.9468 9.85799 12.6758 9.85338 11.9124 9.08998L9.66 6.83754Z" fill="#3C3942"/>
</svg>
